<svg width="95" height="23" viewBox="0 0 95 23" fill="none" xmlns="http://www.w3.org/2000/svg">
<path d="M93.5 12.5459C94.3284 12.5459 95 11.8743 95 11.0459C95 10.2175 94.3284 9.5459 93.5 9.5459L93.5 11.0459L93.5 12.5459ZM0.43934 9.98523C-0.146447 10.571 -0.146447 11.5208 0.43934 12.1066L9.98528 21.6525C10.5711 22.2383 11.5208 22.2383 12.1066 21.6525C12.6924 21.0667 12.6924 20.117 12.1066 19.5312L3.62132 11.0459L12.1066 2.56061C12.6924 1.97482 12.6924 1.02508 12.1066 0.43929C11.5208 -0.146497 10.5711 -0.146497 9.98528 0.439289L0.43934 9.98523ZM93.5 11.0459L93.5 9.5459L1.5 9.54589L1.5 11.0459L1.5 12.5459L93.5 12.5459L93.5 11.0459Z" fill="#FFDC34"/>
</svg>
