<svg width="36" height="36" viewBox="0 0 36 36" fill="none" xmlns="http://www.w3.org/2000/svg">
<path d="M0 36V29.4545H36V36H0ZM2.7 26.1818L8.37 21.0273L8.28 20.9455C7.56 20.2909 7.2 19.5273 7.2 18.6545C7.2 17.7818 7.56 17.0182 8.28 16.3636L15.975 9.36818L25.695 18.2045L18 25.2C17.28 25.8545 16.44 26.1818 15.48 26.1818C14.52 26.1818 13.68 25.8545 12.96 25.2L12.87 25.1182L11.7 26.1818H2.7ZM28.26 15.8727L18.54 7.03636L25.2 0.981818C25.92 0.327273 26.76 0 27.72 0C28.68 0 29.52 0.327273 30.24 0.981818L34.92 5.23636C35.64 5.89091 36 6.65455 36 7.52727C36 8.4 35.64 9.16364 34.92 9.81818L28.26 15.8727Z" fill="white"/>
</svg>
