<svg width="22" height="23" viewBox="0 0 22 23" fill="none" xmlns="http://www.w3.org/2000/svg">
<path d="M19.4108 12.626C19.4579 12.2667 19.4815 11.8953 19.4815 11.5C19.4815 11.1167 19.4579 10.7333 19.399 10.374L21.7903 8.48125C22.0024 8.31354 22.0613 7.9901 21.9317 7.75052L19.67 3.77344C19.5286 3.5099 19.2341 3.42604 18.9749 3.5099L16.1596 4.6599C15.5706 4.20469 14.9462 3.82135 14.2512 3.53385L13.8272 0.491146C13.78 0.203646 13.5444 0 13.2617 0H8.73827C8.45556 0 8.23174 0.203646 8.18462 0.491146L7.76055 3.53385C7.06554 3.82135 6.42943 4.21667 5.85222 4.6599L3.03684 3.5099C2.77768 3.41406 2.48319 3.5099 2.34183 3.77344L0.091883 7.75052C-0.0494749 8.00208 -0.00235569 8.31354 0.233241 8.48125L2.62455 10.374C2.56565 10.7333 2.51853 11.1286 2.51853 11.5C2.51853 11.8714 2.54209 12.2667 2.60099 12.626L0.209681 14.5188C-0.00235567 14.6865 -0.0612547 15.0099 0.0683234 15.2495L2.33005 19.2266C2.47141 19.4901 2.7659 19.574 3.02506 19.4901L5.84044 18.3401C6.42943 18.7953 7.05376 19.1786 7.74877 19.4661L8.17284 22.5089C8.23174 22.7964 8.45556 23 8.73827 23H13.2617C13.5444 23 13.78 22.7964 13.8154 22.5089L14.2395 19.4661C14.9345 19.1786 15.5706 18.7953 16.1478 18.3401L18.9632 19.4901C19.2223 19.5859 19.5168 19.4901 19.6582 19.2266L21.9199 15.2495C22.0613 14.9859 22.0024 14.6865 21.7785 14.5188L19.4108 12.626ZM11 15.8125C8.66759 15.8125 6.75926 13.8719 6.75926 11.5C6.75926 9.12813 8.66759 7.1875 11 7.1875C13.3324 7.1875 15.2407 9.12813 15.2407 11.5C15.2407 13.8719 13.3324 15.8125 11 15.8125Z" fill="#CAC8C6"/>
</svg>
