<svg width="528" height="294" viewBox="0 0 528 294" fill="none" xmlns="http://www.w3.org/2000/svg">
<line x1="56.5307" y1="245.537" x2="72.5307" y2="125.537" stroke="white" stroke-width="7"/>
<line x1="72.5" y1="126" x2="72.5" y2="7" stroke="white" stroke-width="7"/>
<line x1="57.4266" y1="243.628" x2="116.427" y2="179.628" stroke="white" stroke-width="7"/>
<line x1="72.4016" y1="130.655" x2="109.402" y2="89.6551" stroke="white" stroke-width="7"/>
<line x1="108.366" y1="129.305" x2="73.366" y2="89.3048" stroke="white" stroke-width="7"/>
<line x1="22" y1="87.5" x2="91" y2="87.5" stroke="white" stroke-width="7"/>
<line x1="25.5" y1="84" x2="25.5" y2="106" stroke="white" stroke-width="7"/>
<line x1="24.244" y1="86.9724" x2="74.244" y2="57.9724" stroke="white" stroke-width="7"/>
<line x1="76" y1="59.5" x2="91" y2="59.5" stroke="white" stroke-width="7"/>
<line x1="70" y1="3.5" x2="112" y2="3.5" stroke="white" stroke-width="7"/>
<line x1="-3.0598e-07" y1="31.5" x2="181" y2="31.5" stroke="white" stroke-width="7"/>
<line y1="-3.5" x2="121.062" y2="-3.5" transform="matrix(-0.132164 -0.991228 -0.991228 0.132164 121 246)" stroke="white" stroke-width="7"/>
<line y1="-3.5" x2="119" y2="-3.5" transform="matrix(0 -1 -1 0 105 126)" stroke="white" stroke-width="7"/>
<line x1="123.425" y1="243.371" x2="65.4251" y2="180.371" stroke="white" stroke-width="7"/>
<line x1="115.497" y1="177.447" x2="71.4975" y2="132.447" stroke="white" stroke-width="7"/>
<line x1="65.4975" y1="177.553" x2="109.497" y2="132.553" stroke="white" stroke-width="7"/>
<line y1="-3.5" x2="65" y2="-3.5" transform="matrix(-1 -7.82563e-10 -7.82563e-10 1 155 91)" stroke="white" stroke-width="7"/>
<line y1="-3.5" x2="22" y2="-3.5" transform="matrix(0 1 1 0 155 84)" stroke="white" stroke-width="7"/>
<line y1="-3.5" x2="22" y2="-3.5" transform="matrix(0 1 1 0 181 28)" stroke="white" stroke-width="7"/>
<line y1="-3.5" x2="22" y2="-3.5" transform="matrix(0 1 1 0 7 28)" stroke="white" stroke-width="7"/>
<line x1="153.088" y1="86.9316" x2="107.088" y2="56.9316" stroke="white" stroke-width="7"/>
<line y1="-3.5" x2="15" y2="-3.5" transform="matrix(-1 0 0 1 105 63)" stroke="white" stroke-width="7"/>
<line x1="179.684" y1="31.2431" x2="110.684" y2="3.24314" stroke="white" stroke-width="7"/>
<line x1="71.2999" y1="3.24967" x2="1.29987" y2="31.2497" stroke="white" stroke-width="7"/>
<line x1="73.6119" y1="32.4413" x2="103.612" y2="4.44131" stroke="white" stroke-width="7"/>
<path d="M425.692 138.8H444.492L467.692 199.8C469.025 203.4 470.225 206.867 471.292 210.2C472.492 213.533 473.559 216.8 474.492 220C475.425 223.067 476.159 226.067 476.692 229H477.492C478.292 225.667 479.559 221.333 481.292 216C483.025 210.533 484.825 205.067 486.692 199.6L508.492 138.8H527.492L481.292 260.8C478.759 267.467 475.759 273.267 472.292 278.2C468.959 283.267 464.825 287.133 459.892 289.8C455.092 292.6 449.225 294 442.292 294C439.092 294 436.292 293.8 433.892 293.4C431.492 293.133 429.425 292.8 427.692 292.4V278.4C429.159 278.667 430.892 278.933 432.892 279.2C435.025 279.467 437.225 279.6 439.492 279.6C443.625 279.6 447.159 278.8 450.092 277.2C453.159 275.733 455.759 273.533 457.892 270.6C460.025 267.8 461.825 264.467 463.292 260.6L468.892 246.4L425.692 138.8Z" fill="white"/>
<path d="M409 246H391V35H409V246Z" fill="white"/>
<path d="M301.494 173.4C301.494 175.533 301.36 178.333 301.094 181.8C300.96 185.267 300.827 188.267 300.694 190.8H301.494C302.294 189.733 303.494 188.2 305.094 186.2C306.694 184.2 308.294 182.2 309.894 180.2C311.627 178.067 313.094 176.333 314.294 175L348.494 138.8H369.094L325.694 184.6L372.094 246H350.894L313.694 196L301.494 206.6V246H284.094V94H301.494V173.4Z" fill="white"/>
<path d="M256.2 192.2C256.2 201.133 255 209.067 252.6 216C250.333 222.8 247 228.6 242.6 233.4C238.333 238.2 233.067 241.867 226.8 244.4C220.667 246.8 213.8 248 206.2 248C199.133 248 192.6 246.8 186.6 244.4C180.6 241.867 175.4 238.2 171 233.4C166.6 228.6 163.133 222.8 160.6 216C158.2 209.067 157 201.133 157 192.2C157 180.333 159 170.333 163 162.2C167 153.933 172.733 147.667 180.2 143.4C187.667 139 196.533 136.8 206.8 136.8C216.533 136.8 225.067 139 232.4 143.4C239.867 147.667 245.667 153.933 249.8 162.2C254.067 170.333 256.2 180.333 256.2 192.2ZM175.2 192.2C175.2 200.6 176.267 207.933 178.4 214.2C180.667 220.333 184.133 225.067 188.8 228.4C193.467 231.733 199.4 233.4 206.6 233.4C213.8 233.4 219.733 231.733 224.4 228.4C229.067 225.067 232.467 220.333 234.6 214.2C236.867 207.933 238 200.6 238 192.2C238 183.667 236.867 176.4 234.6 170.4C232.333 164.4 228.867 159.8 224.2 156.6C219.667 153.267 213.733 151.6 206.4 151.6C195.467 151.6 187.533 155.2 182.6 162.4C177.667 169.6 175.2 179.533 175.2 192.2Z" fill="white"/>
<path d="M25.5 101.5C324.7 99.5 394.667 48.6667 402 40" stroke="white" stroke-width="5"/>
</svg>
