<svg width="31" height="35" viewBox="0 0 31 35" fill="none" xmlns="http://www.w3.org/2000/svg">
<path d="M7.27226 13.9004L13.3767 19.9665C13.766 20.3534 13.9606 20.8369 13.9606 21.4171C13.9606 21.9974 13.766 22.4985 13.3767 22.9205C12.9521 23.3425 12.4478 23.5535 11.8639 23.5535C11.28 23.5535 10.7757 23.3425 10.351 22.9205L0.636986 13.2674C0.212329 12.8454 0 12.3531 0 11.7905C0 11.2278 0.212329 10.7355 0.636986 10.3135L10.4041 0.607668C10.7934 0.220842 11.28 0.018638 11.8639 0.00105498C12.4478 -0.016528 12.9521 0.185676 13.3767 0.607668C13.766 0.994494 13.9606 1.48682 13.9606 2.08464C13.9606 2.68246 13.766 3.17478 13.3767 3.56161L7.27226 9.68049H26.7534C27.9212 9.68049 28.9209 10.0937 29.7526 10.9201C30.5842 11.7465 31 12.7399 31 13.9004V32.89C31 33.4879 30.7965 33.989 30.3896 34.3934C29.9826 34.7978 29.4783 35 28.8767 35C28.2751 35 27.7708 34.7978 27.3639 34.3934C26.9569 33.989 26.7534 33.4879 26.7534 32.89V13.9004H7.27226Z" fill="white"/>
</svg>
